<?xml version="1.0" encoding="UTF-8"?>
<svg width="23px" height="14px" viewBox="0 0 23 14" version="1.1" xmlns="http://www.w3.org/2000/svg" xmlns:xlink="http://www.w3.org/1999/xlink">
    <!-- Generator: Sketch 48.2 (47327) - http://www.bohemiancoding.com/sketch -->
    <title>SN</title>
    <desc>Created with Sketch.</desc>
    <defs></defs>
    <g id="Post-Info/Springer-Nature-Group" stroke="none" stroke-width="1" fill="none" fill-rule="evenodd" transform="translate(-9.000000, -14.000000)">
        <g id="Circle">
            <g transform="translate(0.000000, 1.000000)">
                <g id="SN" transform="translate(9.000000, 13.000000)">
                    <path d="M9.6045,9.243 C9.6045,11.113 8.7375,13.238 4.8275,13.238 C3.2975,13.238 2.1755,12.983 1.3425,12.66 C0.4585,12.32 0.1865,12.065 0.1865,11.742 C0.1865,11.555 0.3225,11.232 0.4585,10.96 C0.7815,10.263 0.9685,10.11 1.2065,10.11 C1.4615,10.11 1.6995,10.246 2.0395,10.382 C2.8895,10.739 3.6885,10.977 4.6405,10.977 C6.1025,10.977 6.7655,10.45 6.7655,9.447 C6.7655,8.478 6.2895,7.951 4.1985,7.713 C1.3425,7.39 0.2885,5.911 0.2885,4.126 C0.2885,2.681 0.7985,1.797 1.5805,1.202 C2.4305,0.59 3.5525,0.335 4.9975,0.335 C6.2555,0.335 7.1565,0.522 7.8535,0.726 C8.7035,0.964 8.9075,1.253 8.9075,1.508 C8.9075,1.763 8.7885,2.069 8.6695,2.341 C8.4655,2.851 8.2955,3.191 7.9385,3.191 C7.6665,3.191 7.3945,3.072 7.0715,2.97 C6.4425,2.783 5.8135,2.613 4.9295,2.613 C4.2665,2.613 3.8075,2.715 3.5015,2.953 C3.2465,3.157 3.0935,3.48 3.0935,3.854 C3.0935,4.721 3.5525,5.112 5.4735,5.35 C8.6695,5.758 9.6045,7.475 9.6045,9.243 Z" fill="#001A59"></path>
                    <path d="M12.3415,13 C11.7805,13 11.6615,12.881 11.6615,12.32 L11.6615,1.253 C11.6615,0.675 11.7975,0.573 12.3245,0.573 L13.6335,0.573 C14.0075,0.573 14.1605,0.675 14.3815,0.998 L18.8355,7.339 C19.2605,7.866 19.5835,8.41 19.7365,8.784 L19.7705,8.784 C19.7365,8.138 19.7365,7.56 19.7365,6.999 L19.7365,1.253 C19.7365,0.692 19.8385,0.573 20.3995,0.573 L21.5725,0.573 C22.1335,0.573 22.2525,0.675 22.2525,1.253 L22.2525,12.32 C22.2525,12.847 22.1675,13 21.5725,13 L20.3655,13 C19.8895,13 19.7535,12.898 19.3795,12.371 L14.8065,5.979 C14.6025,5.69 14.2965,5.146 14.1265,4.772 L14.0925,4.772 C14.1265,5.231 14.1775,5.554 14.1775,6.268 L14.1775,12.32 C14.1775,12.864 14.0925,13 13.5145,13 L12.3415,13 Z" id="Path" fill="#DB1830"></path>
                </g>
            </g>
        </g>
    </g>
</svg>